first trial
nRows=29
nColumns=38

# SIMM Motion File Header:
name Sujet_08_velo_80.mvnx
datacolumns 38
datarows 29
otherdata 1
range 7.8330 8.3000
endheader
time pelvis_tilt  pelvis_list  pelvis_rotation  pelvis_tx  pelvis_ty  pelvis_tz  hip_flexion_r  hip_adduction_r  hip_rotation_r  knee_angle_r  ankle_angle_r  subtalar_angle_r  mtp_angle_r  hip_flexion_l  hip_adduction_l  hip_rotation_l  knee_angle_l  ankle_angle_l  subtalar_angle_l  mtp_angle_l  lumbar_extension  lumbar_bending  lumbar_rotation  arm_flex_r  arm_add_r  arm_rot_r  elbow_flex_r  pro_sup_r  wrist_flex_r  wrist_dev_r  arm_flex_l  arm_add_l  arm_rot_l  elbow_flex_l  pro_sup_l  wrist_flex_l  wrist_dev_l
7.8330	-23.0809	2.5779	43.4864	0.0000	1.2500	-0.0000	86.6891	3.1536	0.0298	76.0304	-3.7233	9.6913	-0.0000	62.3736	-1.1061	-9.2915	72.5243	-12.2092	3.5483	-0.0000	-13.0588	-0.7084	1.6816	83.9397	-9.4826	28.8150	-5.3848	83.3913	-28.9219	-19.2260	84.6879	-3.9598	25.9522	-6.9290	59.9072	-24.2264	-20.5198	
7.8500	-23.0540	2.6460	43.7722	0.0000	1.2500	-0.0000	83.3712	2.3918	-1.2429	70.5995	-4.2883	9.4839	0.0000	65.1518	-0.8575	-7.7096	77.7208	-12.1114	3.5706	-0.0000	-13.0600	-0.7541	1.6172	83.9639	-9.6048	28.8550	-5.2876	83.2025	-28.9640	-19.2291	84.7085	-3.8012	26.0631	-6.8728	60.0489	-24.1698	-20.4364	
7.8670	-23.0723	2.6761	44.2137	0.0000	1.2500	-0.0000	79.8146	1.5329	-2.5488	65.0303	-5.2248	8.7686	-0.0000	68.1152	-0.5884	-6.2728	82.4689	-12.2073	3.5368	0.0000	-13.0408	-0.7645	1.5359	84.0144	-9.8043	28.5939	-5.2845	83.2683	-29.0219	-19.3032	84.7997	-3.5557	26.1391	-6.7783	60.2894	-24.1250	-20.3494	
7.8830	-23.1153	2.6884	44.7710	0.0000	1.2500	-0.0000	76.0068	0.6311	-3.9508	59.3915	-6.4290	7.7728	0.0000	71.2548	-0.2462	-4.9298	86.9108	-12.3743	3.4532	0.0000	-13.0048	-0.7537	1.4397	84.0627	-10.0571	28.1751	-5.3400	83.4524	-29.0894	-19.4298	84.9165	-3.2487	26.1997	-6.6601	60.5973	-24.0860	-20.2590	
7.9000	-23.1514	2.7240	45.3948	0.0000	1.2500	-0.0000	72.1894	-0.2009	-5.3601	54.1080	-7.8734	7.0781	-0.0000	74.4188	0.2176	-3.7901	90.9643	-12.2321	3.3371	0.0000	-12.9461	-0.7458	1.3235	83.9715	-10.3251	27.8601	-5.4273	83.4780	-29.1346	-19.6079	84.9542	-2.9224	26.2512	-6.5734	60.9496	-24.0621	-20.1787	
7.9170	-23.1724	2.7975	46.0980	0.0000	1.2500	-0.0000	68.3358	-0.9473	-6.8286	49.1372	-9.7337	7.0109	0.0000	77.6040	0.8049	-2.9274	94.6742	-11.5685	3.2037	0.0000	-12.8567	-0.7494	1.1761	83.6571	-10.5905	27.7925	-5.5889	83.1971	-29.1364	-19.8738	84.8908	-2.5857	26.2796	-6.5519	61.3636	-24.0547	-20.1240	
7.9330	-23.1855	2.8942	46.8677	0.0000	1.2500	-0.0000	64.4753	-1.6157	-8.3067	44.4904	-11.8438	7.2659	0.0000	80.8127	1.4801	-2.2963	98.0075	-10.5974	3.0485	0.0000	-12.7454	-0.7572	1.0083	83.2023	-10.8665	27.8278	-5.7821	82.7592	-29.1157	-20.1909	84.7475	-2.2314	26.2991	-6.5627	61.8213	-24.0624	-20.0790	
7.9500	-23.1833	3.0106	47.6150	0.0000	1.2500	-0.0000	60.9399	-2.2069	-9.5130	40.6668	-13.6624	7.4799	-0.0000	83.8991	2.2138	-1.8134	100.7614	-9.5794	2.8659	0.0000	-12.6315	-0.7692	0.8481	82.7198	-11.1620	27.7939	-5.8539	82.3318	-29.1038	-20.4484	84.4852	-1.8782	26.3596	-6.5595	62.2467	-24.0904	-20.0101	
7.9670	-23.1494	3.1375	48.3523	0.0000	1.2500	-0.0000	57.7395	-2.8138	-10.2642	37.7437	-15.0374	7.5531	0.0000	86.8846	3.0321	-1.4778	102.9078	-8.5448	2.7123	0.0000	-12.5153	-0.7716	0.7009	82.1940	-11.4897	27.5728	-5.7108	81.9691	-29.1226	-20.5910	84.0389	-1.5060	26.5230	-6.5319	62.5792	-24.1462	-19.8937	
7.9830	-23.0995	3.2831	49.0665	0.0000	1.2500	-0.0000	54.8637	-3.4354	-10.7220	35.6497	-16.1213	7.6004	0.0000	89.7510	3.8785	-1.2892	104.4755	-7.4623	2.5447	-0.0000	-12.3960	-0.7785	0.5615	81.6383	-11.8346	27.2800	-5.4471	81.6149	-29.1504	-20.6743	83.4718	-1.1392	26.7287	-6.4889	62.8801	-24.2225	-19.7533	
8.0000	-23.0727	3.4731	49.6313	0.0000	1.2500	-0.0000	52.6200	-3.9761	-11.0880	34.6752	-16.8240	7.5329	-0.0000	92.2942	4.6015	-1.1235	105.3454	-6.5026	2.1966	0.0000	-12.2911	-0.8296	0.4441	81.2103	-12.1712	27.0946	-5.1933	81.2700	-29.1535	-20.7540	82.9385	-0.8612	26.8415	-6.4131	63.2565	-24.3019	-19.6251	
8.0170	-23.0864	3.7400	49.9847	0.0000	1.2500	-0.0000	51.1285	-4.4164	-11.4263	34.9989	-17.0058	7.2082	0.0000	94.5421	5.1240	-0.8728	105.4743	-5.7528	1.4629	0.0000	-12.2020	-0.9578	0.3579	80.9662	-12.5290	27.1345	-4.9640	80.8915	-29.1099	-20.8553	82.4436	-0.6925	26.7494	-6.2744	63.8478	-24.3759	-19.5126	
8.0330	-23.1238	4.0521	50.1891	0.0000	1.2500	-0.0000	50.2778	-4.8222	-11.6302	36.4413	-16.8021	6.7453	-0.0000	96.4664	5.5099	-0.5872	104.9101	-5.1140	0.5248	0.0000	-12.1272	-1.1291	0.2946	80.8535	-12.8855	27.2836	-4.7427	80.5225	-29.0417	-20.9527	81.9864	-0.6112	26.5638	-6.1047	64.5137	-24.4529	-19.4124	
8.0500	-23.1722	4.3384	50.3049	0.0000	1.2500	-0.0000	50.0308	-5.2141	-11.6326	38.7548	-16.5370	6.4353	0.0000	97.7779	5.8240	-0.3604	103.6649	-4.4862	-0.2247	0.0000	-12.0795	-1.2822	0.2413	80.8696	-13.1392	27.3733	-4.6137	80.2930	-28.9813	-21.0257	81.7162	-0.6300	26.4834	-5.9786	64.9421	-24.5401	-19.3506	
8.0670	-23.2391	4.6034	50.3357	0.0000	1.2500	-0.0000	50.4583	-5.6215	-11.4845	42.0010	-16.2624	6.3851	0.0000	98.3958	6.0981	-0.1453	101.7006	-3.8217	-0.6967	-0.0000	-12.0732	-1.4103	0.1870	81.0707	-13.2296	27.3027	-4.6547	80.3052	-28.9400	-21.0728	81.7617	-0.8031	26.6245	-5.9206	64.9529	-24.6544	-19.3503	
8.0830	-23.3184	4.8423	50.2778	0.0000	1.2500	-0.0000	51.4946	-6.0071	-11.1151	46.1221	-15.9254	6.4739	0.0000	98.3986	6.2997	0.0292	99.0470	-3.1636	-1.0185	-0.0000	-12.0933	-1.5199	0.1421	81.4022	-13.2174	27.1750	-4.7899	80.4572	-28.9063	-21.0954	81.9951	-1.0722	26.8708	-5.9043	64.7266	-24.7789	-19.3883	
8.1000	-23.3757	4.9701	50.1797	0.0000	1.2500	-0.0000	52.8964	-6.2792	-10.2833	50.6910	-15.6969	6.6653	0.0000	97.7386	6.4003	-0.0552	95.8189	-2.5718	-1.0942	-0.0000	-12.1091	-1.5700	0.1268	81.6948	-13.1808	27.1286	-4.8744	80.5723	-28.8795	-21.0781	82.1811	-1.2787	27.0709	-5.9270	64.4923	-24.8703	-19.4223	
8.1170	-23.3890	4.9302	50.0805	0.0000	1.2500	-0.0000	54.6277	-6.3641	-8.7689	55.7035	-15.6944	7.0239	-0.0000	96.3254	6.4372	-0.4950	91.9717	-2.0259	-0.7256	0.0000	-12.1101	-1.5258	0.1519	81.8847	-13.1529	27.2572	-4.8421	80.5370	-28.8658	-21.0035	82.2136	-1.3372	27.1620	-6.0138	64.3236	-24.9006	-19.4359	
8.1330	-23.3797	4.7791	49.9407	0.0000	1.2500	-0.0000	56.7230	-6.2741	-6.8084	61.1379	-15.7968	7.4989	-0.0000	94.2511	6.3942	-1.2003	87.5507	-1.5631	-0.0814	-0.0000	-12.1073	-1.4221	0.2067	82.0352	-13.0994	27.4670	-4.7589	80.4651	-28.8589	-20.8891	82.1984	-1.3327	27.2065	-6.1399	64.1471	-24.8978	-19.4456	
8.1500	-23.3778	4.6012	49.6922	0.0000	1.2500	-0.0000	59.0426	-6.0619	-4.8537	66.5522	-15.8222	7.8897	0.0000	91.7432	6.1710	-2.1251	82.8084	-1.3443	0.4174	0.0000	-12.1017	-1.3229	0.2795	82.1676	-12.9978	27.6152	-4.6775	80.5219	-28.8384	-20.7719	82.2175	-1.3621	27.2393	-6.2286	63.9704	-24.9022	-19.4576	
8.1670	-23.3805	4.4005	49.3069	0.0000	1.2500	-0.0000	61.5718	-5.7294	-2.9698	71.9445	-15.7510	8.1309	-0.0000	88.7853	5.7412	-3.3853	77.7207	-1.4040	0.5795	-0.0000	-12.0940	-1.2340	0.3641	82.2651	-12.8277	27.6129	-4.6042	80.8122	-28.7848	-20.6543	82.2936	-1.4493	27.2884	-6.2219	63.7841	-24.9336	-19.4615	
8.1830	-23.3891	4.1729	48.8126	0.0000	1.2500	-0.0000	64.3192	-5.2476	-1.1225	77.3232	-15.6075	8.2907	-0.0000	85.3950	5.1965	-4.9208	72.2876	-1.7063	0.6134	0.0000	-12.0843	-1.1494	0.4668	82.3437	-12.6100	27.5481	-4.5331	81.2309	-28.7176	-20.5342	82.4038	-1.5707	27.3258	-6.1780	63.5971	-24.9722	-19.4676	
8.2000	-23.4394	3.9900	48.2241	0.0000	1.2500	-0.0000	67.1826	-4.6720	0.3967	82.2957	-15.2786	8.3589	-0.0000	81.8496	4.5943	-6.4270	66.8142	-2.3083	0.6879	0.0000	-12.0723	-1.1144	0.5948	82.4755	-12.3841	27.5436	-4.4982	81.6272	-28.6745	-20.4428	82.5615	-1.7513	27.3029	-6.1942	63.4442	-24.9989	-19.5133	
8.2170	-23.5599	3.8849	47.5215	0.0000	1.2500	-0.0000	70.1752	-4.0482	1.4611	86.7561	-14.7888	8.3173	-0.0000	78.1534	3.9194	-7.8785	61.2575	-3.2715	0.8693	-0.0000	-12.0564	-1.1603	0.7585	82.7230	-12.1605	27.6777	-4.5143	81.9263	-28.6739	-20.4014	82.7872	-2.0243	27.1830	-6.3123	63.3828	-25.0071	-19.6189	
8.2330	-23.7232	3.8220	46.7234	0.0000	1.2500	-0.0000	73.2820	-3.3606	2.1760	90.8285	-14.1154	8.1832	-0.0000	74.2975	3.2210	-9.3424	55.6803	-4.5380	1.0818	-0.0000	-12.0373	-1.2560	0.9476	83.0228	-11.9269	27.8725	-4.5669	82.2029	-28.6974	-20.3884	83.0588	-2.3572	27.0031	-6.4901	63.3565	-25.0038	-19.7645	
8.2500	-23.8819	3.7706	45.9018	0.0000	1.2500	-0.0000	76.3607	-2.6016	2.6149	94.4685	-13.0734	7.9951	0.0000	70.5414	2.5831	-10.6192	50.5706	-5.9907	1.2807	0.0000	-12.0186	-1.3527	1.1386	83.2586	-11.6875	28.0172	-4.6463	82.5314	-28.7284	-20.3704	83.3250	-2.6762	26.8248	-6.6979	63.2295	-24.9902	-19.9274	
8.2670	-24.0331	3.7400	45.0410	0.0000	1.2500	-0.0000	79.4114	-1.7715	2.7420	97.7066	-11.4498	7.7349	0.0000	66.8768	1.9802	-11.5745	45.9668	-7.7301	1.4580	-0.0000	-11.9985	-1.4470	1.3329	83.3985	-11.4455	28.0560	-4.7765	82.9740	-28.7642	-20.3475	83.5817	-2.9497	26.6520	-6.9581	62.9268	-24.9631	-20.1148	
8.2830	-24.1804	3.7211	44.1567	0.0000	1.2500	-0.0000	82.4355	-0.9104	2.5822	100.5159	-9.4626	7.4333	0.0000	63.3071	1.3886	-12.3344	41.8460	-9.6480	1.6566	0.0000	-11.9792	-1.5422	1.5291	83.4749	-11.1990	28.0446	-4.9340	83.4681	-28.8075	-20.3195	83.8319	-3.2104	26.4797	-7.2487	62.5233	-24.9259	-20.3195	
8.3000	-24.2857	3.6593	43.3701	0.0000	1.2500	-0.0000	85.2971	-0.0706	2.3242	102.7623	-7.5681	7.2008	-0.0000	60.1136	0.8444	-13.0500	38.5999	-11.3233	1.8945	-0.0000	-11.9711	-1.5993	1.7007	83.4686	-10.9460	28.0391	-5.0369	83.9008	-28.8500	-20.2531	84.0363	-3.4791	26.3556	-7.4745	62.1088	-24.8899	-20.4962	
